inDegrees=yes
nColumns=22
nRows=18
DataType=double
version=3
OpenSimVersion=4.5
endheader
time	pelvis_tilt	pelvis_list	pelvis_rotation	pelvis_tx	pelvis_ty	pelvis_tz	hip_flexion_r	hip_adduction_r	hip_rotation_r	knee_angle_r	ankle_angle_r	mtp_angle_r	hip_flexion_l	hip_adduction_l	hip_rotation_l	knee_angle_l	ankle_angle_l	mtp_angle_l	lumbar_extension	lumbar_bending	lumbar_rotation
0.4225007191347263	1.030334472888661	-0.4135631153774698	2.589837446459082	0.4108178363273061	0.9091386034196863	-0.01919898632216813	-0.7562447802111577	5.178196812361493	-14.12506167751893	-11.87189404479219	12.30705164466831	0	27.2050011619767	-6.73091383340305	-10.2501996037347	-38.96503050857947	5.840775191239043	0	-8.679502487176064	1.301847212735955	3.917473123548849
0.435303771229718	0.9883809597990658	-0.5172167336257548	2.10091387054391	0.4210808180561632	0.9082864727768947	-0.01859447343542273	-1.733031246346505	5.37767773297814	-14.04047274440605	-11.2320631948615	12.57258458600733	0	27.12868718727466	-6.543748478006553	-11.32739411635131	-34.45368834054557	5.234592990816144	0	-8.666863904905226	1.376532912798615	4.310949256112862
0.4481068233247097	0.9172113006141152	-0.6840782875304708	1.614648263068369	0.4313984385353482	0.9070955048361535	-0.01805707175636065	-2.667936733112066	5.623806740793853	-13.97953629594738	-10.63428589416449	12.89333356919689	0	27.0194289181568	-6.401838359258083	-12.49272044383293	-30.02777339513636	4.815993731011802	0	-8.619709384096602	1.512961098392889	4.663765167914946
0.4609098754197014	0.8202526579705104	-0.8963649504568665	1.131179472379899	0.4417689364039243	0.905587309271108	-0.01759043334027718	-3.55530019337668	5.89527407439468	-13.93856046181941	-10.10082679167396	13.2689676783197	0	26.88475838165164	-6.282067511331128	-13.7149709493225	-25.71290233060017	4.336586197639265	0	-8.546984768025863	1.69147366346202	4.980911772210938
0.4737129275146931	0.7030616139431105	-1.133308976941611	0.6497488344991542	0.4521979208788067	0.9037930936385037	-0.01720359980139742	-4.389429161410501	6.166441342792199	-13.90890146301485	-9.658242048311493	13.69742957053274	0	26.7325706239028	-6.161338269044979	-14.9394201708586	-21.56643922711423	3.76231081776393	0	-8.457860210642364	1.88986411799418	5.268371746032791
0.4865159796096848	0.5719624999232776	-1.376150672188056	0.1699281992313289	0.4626870996548771	0.901755187127682	-0.01690889617038864	-5.159070374022217	6.412146610064987	-13.88164755386024	-9.342697051561608	14.17684035533323	0	26.57719549241294	-6.026324763682949	-16.09596335759528	-17.67467895549201	3.166288773935065	0	-8.361989473937188	2.088813513972357	5.531856020314132
0.4993190317046765	0.4361498608205573	-1.60524839083396	-0.3084308624158883	0.4732334604028501	0.8995314218262769	-0.01672281202679069	-5.856967545156263	6.606379999381605	-13.84591205019221	-9.18617496501774	14.70456542371516	0	26.43732306970344	-5.870061892944504	-17.13573437684345	-14.13324775810891	2.549504077540814	0	-8.272256986972378	2.268611637798182	5.778930576228552
0.5121220837996682	0.3051314771615553	-1.812753219790429	-0.7798690916973272	0.4838275282505926	0.8971768275354887	-0.01666282138536175	-6.483535219274432	6.738626967806614	-13.79624178829802	-9.202974384577725	15.27017116484767	0	26.35864566037641	-5.706348294139615	-18.00442412566259	-11.10505204807213	2.091147890707268	0	-8.202167811013842	2.421646315387463	6.016780554533331
0.5249251358946599	0.1874591190634855	-1.989054851366961	-1.238409938135828	0.4944695772083558	0.8947562155509683	-0.01674329305605477	-7.047085642998684	6.79909411941919	-13.72537576805201	-9.388410390407332	15.85015953114031	0	26.36699459698475	-5.544190940586877	-18.68170266447425	-8.68300894659702	1.781756707194975	0	-8.16256991623653	2.537185841622318	6.25059177904074
0.5377281879896516	0.09091997010773119	-2.130097458870823	-1.678012775069394	0.5051769951433349	0.8923376961052488	-0.0169761129592637	-7.569288249910256	6.787370932200926	-13.62738209274813	-9.709675231423367	16.40574158458034	0	26.46405521439495	-5.389185373476079	-19.19152760852766	-6.887185093431472	1.539878012235284	0	-8.161292337164873	2.610047007242536	6.483704682855574
0.5505312400846433	0.02030446132801095	-2.240702347016778	-2.089176754162594	0.5159675871560891	0.8899731991204987	-0.01736287378687324	-8.084912117642727	6.717771361124315	-13.50475800936016	-10.10227696706736	16.89281276052448	0	26.66590091120158	-5.256507532427509	-19.56990895092724	-5.767854288346851	1.443208840079191	0	-8.203538440390446	2.642354265211288	6.715478934181818
0.5633342921796349	-0.02414562091357468	-2.298358421398326	-2.465822403379658	0.5268562626888311	0.8876992099261586	-0.0178814072916363	-8.623081652805878	6.576934154185739	-13.36212988622536	-10.50799522532949	17.3067185918535	0	27.00622964442224	-5.142093868785619	-19.87630465411516	-5.427489105330114	1.416186821185168	0	-8.287835232572041	2.601036649000415	6.940515982778753
0.5761373442746267	-0.04577116859557941	-2.308768813423664	-2.801909906817571	0.5378953935213726	0.8855430595680287	-0.01851961140201533	-9.219691263018209	6.382097434136549	-13.19778698139854	-10.85063172093664	17.61105580819818	0	27.48198158115079	-5.058724974573271	-20.15518481320664	-5.873379390694953	1.382353854790092	0	-8.403747790285644	2.489414752690077	7.150019604192475
0.5889403963696185	-0.0529479980461502	-2.289920967185638	-3.094226858252023	0.5491531212384488	0.8835223897166994	-0.01927705282723811	-9.881358610687034	6.155869522904685	-13.01299536912217	-11.10436095655585	17.76821594755729	0	28.04328061514014	-5.014827760712061	-20.39726394867086	-6.972560091956111	1.298626366837332	0	-8.534071775164881	2.3286751008843	7.332437890242422
0.6017434484646101	-0.05976697425242115	-2.229559718890698	-3.345468895046353	0.5607002200812163	0.8816500200366474	-0.02015028683429074	-10.57342958112596	5.881295828028687	-12.8273338554474	-11.30983295523418	17.76973116420065	0	28.60670981453021	-4.977777436901778	-20.55968721539838	-8.488554465673566	1.024544775330333	0	-8.652929200713162	2.10601457735872	7.472483367765608
0.6145465005596019	-0.07715809089579066	-2.130397755398225	-3.564471223449301	0.5726251696958735	0.8799546219804367	-0.02113049396397743	-11.24188931691664	5.550871916040601	-12.65995674825345	-11.55803338900888	17.61805232525902	0	29.04915702153033	-4.924454085545457	-20.5410200506345	-10.08828552393546	0.240322105430951	0	-8.733942400009301	1.826971347024562	7.55919547899108
0.6273495526545936	-0.1116942161254965	-2.007205246282273	-3.76914020074461	0.5850265931537	0.8784786306244341	-0.02220977212114031	-11.8230473029269	5.164225784035605	-12.52597146502755	-11.96424113076093	17.30270410157682	0	29.21602748586275	-4.835381493510817	-20.21568813237232	-11.37071349058002	-1.206741868726577	0	-8.754015553469673	1.512710386215051	7.593368396583075
0.6401526047495852	-0.1582248037724958	-1.903892134195683	-3.970590599834591	0.5979595512580067	0.8772325442694562	-0.02343632946827696	-12.28996092957019	4.752924516372805	-12.39279982307241	-12.60382936090548	16.8522669553145	0	29.02091404297201	-4.718652080020465	-19.62718162098997	-12.16935660079404	-2.672089064792758	0	-8.714376111195051	1.226347614410366	7.587040630753781
